<?xml version="1.0" encoding="UTF-8" standalone="no"?>
<svg width="48px" height="48px" viewBox="0 0 48 48" version="1.1" xmlns="http://www.w3.org/2000/svg" xmlns:xlink="http://www.w3.org/1999/xlink" xmlns:sketch="http://www.bohemiancoding.com/sketch/ns">
    <!-- Generator: Sketch 3.2.2 (9983) - http://www.bohemiancoding.com/sketch -->
    <title>facebook</title>
    <desc>Created with Sketch.</desc>
    <defs></defs>
    <g id="Page-1" stroke="none" stroke-width="1" fill="none" fill-rule="evenodd" sketch:type="MSPage">
        <g id="v4" sketch:type="MSArtboardGroup" transform="translate(-1219.000000, -40.000000)" fill="#FF8686">
            <path d="M1243.00006,39.9998741 C1229.72225,39.9998741 1219,50.7776802 1219,63.9999371 C1219,77.2777497 1229.72225,88 1243.00006,88 C1256.22232,88 1267.00013,77.2777497 1267.00013,63.9999371 C1267.00013,50.7776802 1256.22232,39.9998741 1243.00006,39.9998741 L1243.00006,39.9998741 Z M1245.00007,60.0554823 L1251.00008,60.0554823 L1250.61119,65.9999423 L1245.00007,65.9999423 L1245.00007,80.9999816 L1238.00005,80.9999816 L1238.00005,65.9999423 L1234.00004,65.9999423 L1234.00004,59.9999266 L1238.00005,59.9999266 L1238.00005,54.5554678 C1238.00005,50.5554574 1240.55561,46.9998925 1246.44452,46.9998925 C1249.33341,46.9998925 1251.00008,47.3332267 1251.00008,47.3332267 L1250.72231,52.9999082 L1247.44452,52.9999082 C1245.3334,52.9999082 1245.00007,54.0554665 1245.00007,55.7221376 L1245.00007,60.0554823 Z" id="facebook" sketch:type="MSShapeGroup"></path>
        </g>
    </g>
</svg>