<?xml version="1.0" encoding="UTF-8" standalone="no"?>
<svg width="48px" height="48px" viewBox="0 0 48 48" version="1.1" xmlns="http://www.w3.org/2000/svg" xmlns:xlink="http://www.w3.org/1999/xlink" xmlns:sketch="http://www.bohemiancoding.com/sketch/ns">
    <!-- Generator: Sketch 3.2.2 (9983) - http://www.bohemiancoding.com/sketch -->
    <title>instagram</title>
    <desc>Created with Sketch.</desc>
    <defs></defs>
    <g id="Page-1" stroke="none" stroke-width="1" fill="none" fill-rule="evenodd" sketch:type="MSPage">
        <g id="v4" sketch:type="MSArtboardGroup" transform="translate(-1281.000000, -40.000000)" fill="#FF8686">
            <path d="M1305.00006,54.9999135 C1300.00005,54.9999135 1296.00004,59.0554796 1296.00004,63.9999371 C1296.00004,68.9999502 1300.00005,72.9999607 1305.00006,72.9999607 C1309.94452,72.9999607 1314.00009,68.9999502 1314.00009,63.9999371 C1314.00009,59.0554796 1309.94452,54.9999135 1305.00006,54.9999135 L1305.00006,54.9999135 Z M1327.2779,54.9999135 C1323.66678,46.2221127 1315.05564,39.9998741 1305.00006,39.9998741 C1294.94448,39.9998741 1286.27779,46.2221127 1282.72223,54.9999135 L1295.61115,54.9999135 C1298.00004,52.5554626 1301.33339,50.999903 1305.00006,50.999903 C1308.66674,50.999903 1312.00008,52.5554626 1314.38898,54.9999135 L1327.2779,54.9999135 Z M1329.00013,63.9999371 C1329.00013,62.2777103 1328.83346,60.6110393 1328.50012,58.9999239 L1317.00009,58.9999239 C1317.66676,60.5554836 1318.0001,62.2221546 1318.0001,63.9999371 C1318.0001,71.1666225 1312.16675,76.9999712 1305.00006,76.9999712 C1297.83338,76.9999712 1292.00003,71.1666225 1292.00003,63.9999371 C1292.00003,62.2221546 1292.33336,60.5554836 1293.00003,58.9999239 L1281.5,58.9999239 C1281.16667,60.6110393 1281,62.2777103 1281,63.9999371 C1281,77.2777497 1291.72225,88 1305.00006,88 C1318.27788,88 1329.00013,77.2777497 1329.00013,63.9999371 L1329.00013,63.9999371 Z" id="instagram" sketch:type="MSShapeGroup"></path>
        </g>
    </g>
</svg>