<?xml version="1.0" encoding="UTF-8" standalone="no"?>
<svg width="48px" height="48px" viewBox="0 0 48 48" version="1.1" xmlns="http://www.w3.org/2000/svg" xmlns:xlink="http://www.w3.org/1999/xlink" xmlns:sketch="http://www.bohemiancoding.com/sketch/ns">
    <!-- Generator: Sketch 3.3.3 (12072) - http://www.bohemiancoding.com/sketch -->
    <title>twitter</title>
    <desc>Created with Sketch.</desc>
    <defs></defs>
    <g id="Page-1" stroke="none" stroke-width="1" fill="none" fill-rule="evenodd" sketch:type="MSPage">
        <g id="v4" sketch:type="MSArtboardGroup" transform="translate(-1097.000000, -40.000000)" fill="#FF8686">
            <path d="M1121.00006,39.9998741 C1107.72225,39.9998741 1097,50.7221245 1097,63.9999371 C1097,77.2777497 1107.72225,88 1121.00006,88 C1134.27788,88 1145.00013,77.2777497 1145.00013,63.9999371 C1145.00013,50.7221245 1134.27788,39.9998741 1121.00006,39.9998741 L1121.00006,39.9998741 Z M1135.61121,58.7221454 L1135.61121,59.6110367 C1135.61121,68.6110603 1128.77786,78.9999764 1116.22227,78.9999764 C1112.38893,78.9999764 1108.77781,77.9444181 1105.7778,75.9999685 C1106.2778,76.0555242 1106.83336,76.1110799 1107.38892,76.1110799 C1110.61115,76.1110799 1113.50004,74.8332988 1115.83338,72.9999607 C1112.88893,72.944405 1110.33337,71.1110668 1109.50003,68.3888375 C1109.88892,68.4443932 1110.33337,68.4999489 1110.77781,68.4999489 C1111.38893,68.4999489 1112.00004,68.4443932 1112.5556,68.2777261 C1109.44448,67.6110576 1107.11114,64.8888283 1107.11114,61.5554862 L1107.11114,61.4999305 C1108.00003,61.9999318 1109.05559,62.333266 1110.1667,62.333266 C1108.33336,61.1110406 1107.16669,59.0554796 1107.16669,56.6665845 C1107.16669,55.4443591 1107.50003,54.2776893 1108.05558,53.222131 C1111.44448,57.3888086 1116.50005,60.111038 1122.16673,60.3888165 C1122.05562,59.8888152 1122.00007,59.3332582 1122.00007,58.8332568 C1122.00007,55.0554692 1125.00007,51.9999056 1128.77786,51.9999056 C1130.72231,51.9999056 1132.50009,52.8332411 1133.72232,54.1665779 C1135.27788,53.8332437 1136.66677,53.2776867 1138.00011,52.4999069 C1137.50011,54.1110222 1136.5001,55.4443591 1135.05566,56.2776946 C1136.44455,56.1110275 1137.77788,55.7221376 1139.00011,55.2221363 C1138.05566,56.5554731 1136.94455,57.7776985 1135.61121,58.7221454 L1135.61121,58.7221454 Z" id="twitter" sketch:type="MSShapeGroup"></path>
        </g>
    </g>
</svg>