<svg id="Layer_1" data-name="Layer 1" xmlns="http://www.w3.org/2000/svg" viewBox="0 0 319.01 228.34">
  <title>mamacitas-cafe</title>
  <g>
    <path d="M298.89,95.69c0.79,2,1.5,4,2.38,5.93,3,6.66,6.38,13.19,9.09,20,3.92,9.84,2.89,19.54-1.73,29-5.07,10.39-18.65,18.18-30.07,17-11.16-1.15-20.75-11.71-21.81-24a33.21,33.21,0,0,1,7.06-23.85c0.91-1.18,1.86-2.34,2.87-3.6L265,108.75c-3,3.76-3.49,8.91-8,10.81-3.62-1.24-3.62-1.24-5.74-6.61l-6.85,6.35c-3.35.1-4.49-1.81-5.13-4.7-3.08,3.51-4.85,8-10.59,6.68L226,116.61c-3.5,2-5.64,6.15-10.25,6.68-4.71-.55-5.59-4.83-7.29-8.44l-5.72,9c-6.56.47-5.73-4.39-6.66-8.21-3.06,4-3.37,9.67-8.39,11.2-4.42-1-4.1-4.79-5.57-7.84-3.06,2.94-3.78,7.69-7.8,9.32-2.34-.33-3.44-1.68-3.41-3.77a33.12,33.12,0,0,1,.55-6.44c1.17-5.54,2.56-11,3.84-16.55,0.18-.77.26-1.56,0.46-2.74-2.64.55-3.68,2.34-4.42,4-1.62,3.63-3,7.37-4.31,11.15s-2.05,7.38-3.25,11c-0.6,1.82-1.07,4-3.76,4.45-1.62-1.66-.9-3.68-0.48-5.5,1.45-6.33,3.06-12.62,4.58-18.94,0.38-1.57.63-3.17,1.08-5.46a13.83,13.83,0,0,0-7,7.56c-2.43,5.83-4.43,11.83-6.58,17.77-0.45,1.25-.71,2.58-1.22,3.8-0.61,1.49-1.59,2.54-4,1.78l1.38-10.95-6.55,11.86c-5.47.67-5.79,0.36-7.73-7.17-2.67,3.48-3.13,8.36-7.41,10.42-3.32.43-4.73-1.76-5.08-4.32a52.61,52.61,0,0,1-.56-11.9,33.11,33.11,0,0,1,8.84-19.2c2.53-2.8,5.55-4.9,9.73-3.68a17,17,0,0,1,11.59-3.4c-5.08,5.37-7.25,11.19-8.8,17.27-1.5,5.88-3.18,11.75-2.42,18.79,2.86-2.05,3.51-4.48,4.22-6.72,1.87-5.87,3.33-11.88,5.38-17.69A50.5,50.5,0,0,1,154,93.58a5.82,5.82,0,0,1,7.58-2.47l-1.85,6.76,8.78-9.63L172.1,91v5l7-7.67,4.67,4.39c-2.86,10.28-7.16,19.84-8.51,30.22a27,27,0,0,0,7.44-13.84A36.34,36.34,0,0,1,189,94.5a29,29,0,0,1,6.42-6.15c1.44-1,3.56-1.09,5.49-1.25,3.54-1.49,6.83-3.85,11.31-2.64-8.43,10.4-10.09,22.49-11.3,34.72l1.14,0.56a7.18,7.18,0,0,0,1.78-1.92c1.81-4.8,3.78-9.57,5.11-14.51s2.47-10.09,5.85-14.18,7.44-6.55,12.84-5.25c2.76,5.33,1.56,12.39-2.68,15.54-0.21-4.17,2.78-8.66-1.4-12.17-6.93,9-9.74,24.68-5.36,30.33,4.33,0.76,6.07-2.59,7.76-5.53,1-1.82,1.38-4.08,1.91-6.18,1.71-6.77,3.37-13.55,5-20,2.75-2.26,5.3-3.53,8.5-2.06,3.95-3.38,4.51-8.42,6.32-13.19l7.22-2.18-1.31,9.92c2-.33,3.45-0.54,4.85-0.78a8.54,8.54,0,0,1,4.08,0l-11.18,8.8c-2.71,7.81-6.38,16.24-7,25.52-0.05.8,0.7,1.65,1.25,2.83a14.88,14.88,0,0,0,6-10.83,33.32,33.32,0,0,1,5.58-15.35,34,34,0,0,1,4.79-5.73c2.35-2.31,5.14-3.73,8.36-2.56,3.49-2.07,6.68-4.2,11.45-2.86-5,4.71-6.91,10.5-8.56,16.39s-3.09,11.88-2.44,19.37c1.37-1.68,2.38-2.45,2.76-3.46,1.4-3.74,2.61-7.55,3.87-11.34,2.1-6.31,4.05-12.68,6.35-18.92a12.37,12.37,0,0,1,3.53-4.68c3.18-2.77,6.31-2.59,9.32.37a24,24,0,0,1,3,3.94c0.81,1.22,1.42,2.57,2.47,4.52,1.94-4.74,3.91-8.87,9.5-9.35-1.42,5-8.8,18.59-11.44,21.17a3.53,3.53,0,0,1-1.39.45c0.05-1.49.13-3,.16-4.48a20.76,20.76,0,0,0-3.19-11.39c-1.11-1.83-2.41-3.49-4.85-3.79C290.85,81.48,294.76,90.87,298.89,95.69Zm-8.2,36.57c0.37-1.92,1-3.32.81-4.65a29.92,29.92,0,0,0-1.61-7.27c-2.42-6.27-10.59-8.84-16.28-5.3a31.34,31.34,0,0,0-13.75,32c2,9.76,9.75,17.38,19.28,18.37,7.32,0.76,13.68-2,19.39-6.45a16.75,16.75,0,0,0,6.74-13.8,60.86,60.86,0,0,0-6.81-28.87c-4.6-9-9.42-17.95-14.41-27.42l-7.44,20.58c2.27-.7,3.66-1.25,5.11-1.57,7.17-1.58,14.72,4,14.75,11.11a31.13,31.13,0,0,1-3.08,14c-2,4-4.6,5.1-9.4,4.33-1.24-3.7.11-7.33,3-7.54ZM239.11,87.85c-2.41,7.9-4.83,15.47-7,23.11-0.56,2-.71,4.25,1.82,6.11,7.69-8.32,7.74-19,10.46-29.22h-5.28Zm19.24,25.83c4.19-4.81,9.31-21.07,8.33-25.83C259.65,93.47,255.2,106.83,258.35,113.68ZM126.84,128.87c4.05-4,9.1-19.16,8.8-25.88C128.78,107.72,124.13,120.92,126.84,128.87ZM198.5,94.51c-7.82,5.7-12.6,20.08-8.81,26.59C195,113,196.5,104,198.5,94.51Z" transform="translate(-10 -15)"/>
    <path d="M104.57,74c0.86,1.57,1.73,2.41,1.61,3.09-0.43,2.58-.66,5.39-1.89,7.61-8.22,14.91-6.89,12.17-6.43,29,0.08,2.79,0,5.58,0,8.37L99,122.24a17.3,17.3,0,0,0,1.72-2.62c2.22-5.2,4.47-10.4,6.51-15.68,2.24-5.78,4.72-11.43,8.69-16.23a43.57,43.57,0,0,1,6.14-5.8c1.26-1,2.86-1.9,4.49-.3-2.08,9.17-4.4,18.31-6.17,27.54-2.37,12.33-6.84,24-10.54,35.93a20.46,20.46,0,0,1-5.15,9.18c-0.58-4,1.51-6.57,2.2-9.43q1.11-4.61,2-9.27c0.58-2.94,1-5.9,1.54-8.86,0.53-3.12,1-6.24,1.61-9.34s1.27-6.06,1.92-9.09l-1.07-.54a38.94,38.94,0,0,0-3.67,4.86c-2.69,5-5.08,10.11-7.77,15.08-1.67,3.08-2.24,7-6.2,9.16-2.26-4.46-.78-9.15-1.95-13.41s-1.94-8.67-2.89-13l-1-.1c-0.34,1-.66,1.94-1,2.9-1.42,3.87-2.81,7.76-4.3,11.61-2,5.11-4,10.18-6.05,15.27-0.86,2.16-1.58,4.39-2.6,6.48-2.76,5.69-5.57,11.37-8.53,17-1,1.92-2,4.11-5.18,5.1a20.5,20.5,0,0,1,1.22-3.7c8.27-13.86,11.6-29.29,14.54-44.89,1-5.05,2.49-10,3.72-15,0.27-1.08.38-2.19,0.6-3.56a13.78,13.78,0,0,0-3.17,0c-11.25,3-22.55,5.9-33.7,9.28A60.54,60.54,0,0,0,21,123.94c-3.34,3.08-6.31,6.42-6.94,12,1.09,0.85,2.3,2.31,3.83,2.88,8.28,3.07,16.37,2.07,24.19-1.74a8.21,8.21,0,0,0,4.38-5.2c0.32-1,.69-2.07,1.13-3.38,2.78,4.26,1.69,8.8-2.78,11.45A39.27,39.27,0,0,1,37,143.2c-5.88,1.93-13.72,3-21.89-.89-8.82-11.2-5.2-19.8,2.77-27.14,8.45-7.79,18.58-12.27,29.32-15.44,10.54-3.11,21.25-5.6,31.9-8.34,3.23-.83,6.53-1.4,9.7-2.41C96.11,86.66,102.73,83.43,104.57,74Z" transform="translate(-10 -15)"/>
    <path d="M45,65.2V61.68c0.29-.25.41-0.37,0.54-0.47a1,1,0,0,1,.4-0.27,28.32,28.32,0,0,1,3-.25q138,0,276,0a7.71,7.71,0,0,1,1.71.48l0.25,3.51c-0.37.35-.48,0.47-0.61,0.58a1,1,0,0,1-.4.27,28.24,28.24,0,0,1-3,.25q-138,0-276-.07A8.83,8.83,0,0,1,45,65.2Z" transform="translate(-10 -15)"/>
    <path d="M327,243.22l-17.7-7.86-17.36,7.71c-1.68-4.43-.61-8.74-0.8-12.92s0-8.66,0-13,0-8.58,0-13.16h6.42v16.78l11.83-5.11,11.49,5.07L321.2,204H327v39.23ZM309.26,223l-11.59,5.2,0.43,4.64L309.22,228,321,233l-0.25-4.89Z" transform="translate(-10 -15)"/>
    <path d="M193.3,15.2l17.19,7.59,17.32-7.67c1.49,4.36.52,8.66,0.69,12.86s0,8.66,0,13,0,8.58,0,13.19h-6.33V37.45L210.47,42.4l-11.57-5V54.11h-5.63C192.22,50.08,192.16,20.23,193.3,15.2Zm28.42,10.1-11.19,4.8-11.48-4.82V30l11.59,5.11,11.5-5.24Z" transform="translate(-10 -15)"/>
    <path d="M143.69,15.11l17.44,7.62,17.7-7.66V54.23l-5.38.26c-1.29-5.57.11-11.09-1-16.89L161.28,42.4l-11.76-5V54.14h-5.71C142.78,50.36,142.62,21,143.69,15.11Zm5.82,14.8,11.83,5.18,11.59-5.39-0.56-4.43L161.2,30.11,150,25.3Z" transform="translate(-10 -15)"/>
    <path d="M143.64,204h5.78v16.8l11.7-5.15,11.73,5.13c0-3.24,0-5.82.05-8.41s0-5.28,0-8.3h5.48c1,3.69,1.18,32.95.14,38.74-6-1.88-11.4-5.28-17.63-7.37l-17,7.56C142.77,238.78,142.67,209,143.64,204Zm6.15,28.85L161.2,228l11.32,4.91V228L161,223l-11.23,5v4.79Z" transform="translate(-10 -15)"/>
    <path d="M297.68,37.4V54.13h-5.75c-1-3.42-1.27-32.23-.27-38.8,6.26,1.77,11.74,5.29,17.89,7.38l16.81-7.45c1.12,3.72,1.27,34.11.2,38.89a10.41,10.41,0,0,1-1.81.3c-1,0-2-.13-3.62-0.26V37.35l-11.78,5.07Zm0-7.46,11.7,5.19,11.65-5.34-0.34-4.6-11.32,5L298,25.27Z" transform="translate(-10 -15)"/>
    <path d="M210.53,215.7l11.21,4.87c0.86-5.52.06-10.77,0.63-16.49l5.07-.4c1.32,3.74,1.56,33.86.3,39.27l-17.35-7.58-16.81,7.49c-1.31-3.56-1.72-31-.63-38.76h5.65v16.61ZM210.41,223l-11.54,5.24,0.22,4.72L210.4,228l11.4,4.84V228Z" transform="translate(-10 -15)"/>
    <path d="M129.83,243.34l-18-7.93-17,7.44c-1.37-3.44-1.83-29.32-.73-38.84l5.76-.36V220c4.79-.24,7.86-3.17,12.16-4.22l10.87,4.74c1.75-5.46-.09-11,1.18-16.56l5.54-.26C130.08,216.81,129.68,229.63,129.83,243.34ZM100.08,233.1l11.65-5.17L123.21,233v-4.92l-11.59-5-11.29,5.09Z" transform="translate(-10 -15)"/>
    <path d="M271.77,220.82V204H277c1,3.52,1.28,31.73.28,38.91-6-2-11.42-5.26-17.49-7.47l-17.94,7.83c-0.27-13.45-.06-26.14-0.14-39.21H248v16.78l11.81-5.13Zm-23.35,7.32V233l11.39-5,11.56,5v-4.83L259.8,223Z" transform="translate(-10 -15)"/>
    <path d="M277.61,15V54.05h-5.72V37.42L260,42.29l-11.83-4.83V54.14H242.1V15L260,22.74ZM248.13,29.82L260,35.08l11.66-5.31-0.33-4.52L259.9,30.06l-11.34-4.83Z" transform="translate(-10 -15)"/>
    <path d="M129.23,54.18h-5.58V37.29l-11.71,5.07-11.31-4.7c-1.34,5.49-.06,10.8-0.91,16.38H93.88V15.38c6.41,1.72,11.78,5,17.92,7.34l17-7.39C130,19.09,130.26,47.93,129.23,54.18ZM112,30c-4.32-1.09-7.47-3.83-11.69-4.21V30l11.47,5.15,11.8-5.33L123,25.26Z" transform="translate(-10 -15)"/>
    <path d="M62.32,42.41l-10.8-4.74c-1.39,5.46-.09,10.78-1,16.51l-5,.28c-1.26-3.85-1.46-34-.28-39.34l17.09,7.63L79.89,15V54.12H74.08V37.44ZM73.67,30.06l0.24-4.93-11.55,5L51.22,25.29,51,29.9l11.32,5.21Z" transform="translate(-10 -15)"/>
    <path d="M62.09,235.46L45.45,243c-1.14-3.91-1.35-33.09-.36-39h5.7v16.66l11.42-5,11.22,4.74c1.33-5.42,0-10.73.92-16.46l5-.25c1.11,3.89,1.34,32.84.34,39C73.56,241,68.27,237.46,62.09,235.46Zm-10.8-2.64L62.47,228,74,233.1,73.73,228l-11.51-5-11.34,5.2Z" transform="translate(-10 -15)"/>
    <path d="M252,124.63c-1.38,4.19-4.88,5.54-8.33,6.62-12,3.76-24.2,6.54-36.75,6.49-13.84-.06-27.57,1.36-41.34,2.11-7.77.42-15.51,1.91-23.17,3.38A35.76,35.76,0,0,0,123.9,153.4a8.67,8.67,0,0,1-1.73.91,12.79,12.79,0,0,1-.43-3.34,14.17,14.17,0,0,1,5.31-8.76c6.4-5.36,14-7.62,22.06-8.42,7.59-.76,15.24-1.22,22.86-1.27,10.31-.06,20.63.38,30.94,0.66a129.15,129.15,0,0,0,43.78-6.07,23.9,23.9,0,0,0,2.73-1.23C250.29,125.47,251.14,125,252,124.63Z" transform="translate(-10 -15)"/>
    <path d="M238.56,183.8v4.56l-11.26,5.14-11.37-5.32V154.33l11.25-5,11.32,5v4.56l-12.09-5.17v9.45c3.42-.84,5.91,1.26,8.93,2.81v3.62c-3.14.75-5.41-3.44-8.92-.88v5.92c3.07,3.06,5.56-.44,8.76-0.64l0.54,4-9.29,3.57v7.36Zm-17.74,1.57,1.11,0.09q0-4.89,0-9.79c0-3.15.09-6.3,0-9.44s0.6-6.31-.76-10C219.17,160.64,219.21,181.94,220.82,185.36Z" transform="translate(-10 -15)"/>
    <path d="M159.48,165.11H156l-0.54-7.78-7.7-3.25c-1.11,6.11-.42,11.7-0.55,17.23s0,11.18,0,17.58l8.23-3.34L156,177.9h3.38v10.39l-11.08,5.22-11.37-5.24V154.84l11.35-5.61,11.21,5.2v10.67Zm-16.62-7.79-1.25-.53a3.86,3.86,0,0,0-.59,1.34c-0.07,8.8-.11,17.61,0,26.41,0,0.41,1,.82,1.89,1.47V157.32Z" transform="translate(-10 -15)"/>
    <path d="M195.53,193.06V170.19c-2.44.52-1.85,2.13-1.86,3.29-0.06,6.31,0,12.63,0,19.24l-3.9.72c-0.32-13-.1-25.54-0.14-38.53l11.13-5.61,11,5.05v4.52l-11.6-4.78v7.71l11.52,5.42v4.51l-11.55-4.8c-0.55,9.09,0,17.49-.36,26.14h-4.26Z" transform="translate(-10 -15)"/>
    <path d="M185.83,193.28l-3.5-.23V180.4l-7.65-10.85L167,180.19v12.87l-3.34.21a12.91,12.91,0,0,1-.54-2.49c0-7.48-.07-15,0-22.44a7.28,7.28,0,0,1,.87-3.79c3.29-4.94,6.78-9.75,10.64-15.22l11.15,15.89v28.08ZM174.59,162.4l3.5,4.69,3.45,4.66c0.58-5.09-2.34-10.41-7.26-14.29-7.38,9-7.7,9.68-6.19,13.9Z" transform="translate(-10 -15)"/>
    <path d="M328.71,194.56H245.17v-4.68h83.35a16.54,16.54,0,0,1,.48,2.32A13.78,13.78,0,0,1,328.71,194.56Z" transform="translate(-10 -15)"/>
    <path d="M126.88,190.06v4c-3.7,1-73.75,1.37-83.37.44l-0.26-3.59C44.48,189.32,117.62,188.94,126.88,190.06Z" transform="translate(-10 -15)"/>
    <path d="M254.25,208.44l5.63-5.23,5.86,5.29-6.26,3.66C257.64,212.58,256.73,210.08,254.25,208.44Z" transform="translate(-10 -15)"/>
    <path d="M254.6,49.82l5.28-5.22,5.35,5L260,55.15Z" transform="translate(-10 -15)"/>
    <path d="M210.43,55.2l-5.16-5.47,5.44-4.89,5.21,4.79Z" transform="translate(-10 -15)"/>
    <path d="M308.9,212.86l-4.83-4.33,5-5.62,6,5.53Z" transform="translate(-10 -15)"/>
    <path d="M62.5,203.22l5.37,5.08-5.69,5.17-5.06-4.95Z" transform="translate(-10 -15)"/>
    <path d="M116.44,50.33l-4.84,4.95-4.69-5.86,5.2-4.7Z" transform="translate(-10 -15)"/>
    <path d="M216.13,208.29l-5.38,4.93-6.12-4.91,5.81-5Z" transform="translate(-10 -15)"/>
    <path d="M155.69,208.15l5.88-4.54,5.09,4.57-5.39,5.41Z" transform="translate(-10 -15)"/>
    <path d="M67.87,49.9l-5.72,5-5.32-5.08,5.8-5Z" transform="translate(-10 -15)"/>
    <path d="M166.59,49.77l-5.16,5.5-5.75-5.47,5.51-5.25Z" transform="translate(-10 -15)"/>
    <path d="M112.12,213.16l-6.21-4.82,5.76-5.1,5.57,5.11Z" transform="translate(-10 -15)"/>
    <path d="M309.77,45l4.93,4.93L309.31,55,304,49.81Z" transform="translate(-10 -15)"/>
    <path d="M242.5,73.24c-2.53,6-4,7-7.87,5.37C235,73.21,237.93,71.08,242.5,73.24Z" transform="translate(-10 -15)"/>
  </g>
</svg>
