<svg id="Layer_1" data-name="Layer 1" xmlns="http://www.w3.org/2000/svg" viewBox="0 0 320.51 320.51">
  <defs>
    <style>
      .cls-1 {
        fill: #3b3b3b;
      }

      .cls-2 {
        fill: #3a3a3a;
      }

      .cls-3 {
        fill: #767676;
      }

      .cls-4 {
        fill: #010101;
      }
    </style>
  </defs>
  <title>show-and-tell</title>
  <g>
    <path d="M151.24,0h5.34a2,2,0,0,0,.7.32q3,0,5.94,0a2,2,0,0,0,.7-0.32h5a4.31,4.31,0,0,0,1,.36c2.38,0.22,4.76.4,7.14,0.6a137.55,137.55,0,0,1,17.76,2.82,158.76,158.76,0,0,1,43.74,16.69,161.23,161.23,0,0,1,54.65,50.4,158.45,158.45,0,0,1,17.47,34.2,150.63,150.63,0,0,1,7.78,30.29c0.68,4.72,1.07,9.49,1.62,14.23a3.74,3.74,0,0,0,.4,1v5.68a2,2,0,0,0-.32.7q0,3.31,0,6.62a2,2,0,0,0,.32.7v6c-0.55.13-.39,0.59-0.42,0.95-0.28,2.82-.53,5.64-0.84,8.45a150.73,150.73,0,0,1-4.45,22.87,157.62,157.62,0,0,1-19,43.17,161.5,161.5,0,0,1-58.5,55.06A158.09,158.09,0,0,1,189,317.88a153.59,153.59,0,0,1-18.68,2.25,6.33,6.33,0,0,0-1.34.38h-5a2,2,0,0,0-.7-0.32q-3,0-5.94,0a2,2,0,0,0-.7.32h-5.34a5.86,5.86,0,0,0-1.33-.39,136.26,136.26,0,0,1-15.73-1.76A159.73,159.73,0,0,1,53,279.26,163.58,163.58,0,0,1,39,265,159.47,159.47,0,0,1,8.16,210.68a152.67,152.67,0,0,1-6.54-28.2c-0.49-3.8-.8-7.62-1.21-11.43A2.52,2.52,0,0,0,0,170.27v-6a2,2,0,0,0,.32-0.7q0-3.31,0-6.62a2,2,0,0,0-.32-0.7v-6c0.55-.13.38-0.59,0.42-0.95,0.32-3.2.55-6.42,1-9.61a160.25,160.25,0,0,1,118-134.35A155.85,155.85,0,0,1,150.07.39,4.73,4.73,0,0,0,151.24,0ZM168,220.74c0-4.94,0-9.77,0-14.59s-0.07-9.74.06-14.78H177c0-2.14.08-4.1,0-6.18H173.8c-0.95,0-1.89,0-2.84,0s-2,.26-2.89-0.24V151.75a1.54,1.54,0,0,1,.34-0.24c0.37-.1.75-0.19,1.13-0.28a19.51,19.51,0,0,0,13.55-10.18c3.8-7.08,4.14-14.55,2-22.18a20.88,20.88,0,0,0-7.48-11.36c-5.87-4.51-12.5-5.34-19.45-3.44-6.48,1.78-10.88,6.12-13.38,12.31a29.15,29.15,0,0,0-.92,19.62c2.39,8.08,7.53,13.48,16,15.31,0.32,0.07.62,0.19,1,.31v33.51c-3,.21-5.9-0.07-8.86.17v6.06c3,0.15,5.92,0,8.93.12v17.68c0,1.95,0,3.9,0,5.84s-0.1,3.85.09,5.76h7Zm42-70.25,10.15-34.91h0.33l10.24,35c1.31,0,2.48,0,3.64,0a15.15,15.15,0,0,0,3.54-.16l14.73-45.79h-7.48c-1.2,4-2.39,7.94-3.56,11.87s-2.35,8-3.57,12-2.26,7.82-3.84,11.65l-10.14-35.52h-7.38l-2.07,7.24-2,7.06-2.06,7.21c-0.67,2.35-1.31,4.71-2,7.05s-1.19,4.74-2.24,7.32l-10.72-35.88h-7.49l14.78,45.91H210Zm-21.9,49.56h27.23c2.26,0,4.52,0,6.76,0a4.27,4.27,0,0,0,.16-0.66,33.57,33.57,0,0,0-1.66-12.16,19.89,19.89,0,0,0-7.09-10.07c-6-4.34-12.66-4.62-19.38-2.19-5.95,2.15-9.52,6.79-11.46,12.67a32.77,32.77,0,0,0-.05,20.67c2.2,6.91,6.71,11.57,13.93,13.23a25.74,25.74,0,0,0,11.57-.12,16.27,16.27,0,0,0,9.95-6.53,25.13,25.13,0,0,0,4-9.44,1.73,1.73,0,0,0-.08-0.59,26.45,26.45,0,0,0-6.83.07c-0.31.94-.56,1.91-0.94,2.83-1.92,4.69-5.2,7.63-10.43,8.15-5.64.55-10-1.49-13-6.27A19.44,19.44,0,0,1,188.11,200.05Zm-82.43-49.59c0-.67.07-1.27,0.07-1.86,0-8.17,0-16.35,0-24.52a21.43,21.43,0,0,1,.74-5.26,12.36,12.36,0,0,1,5.67-7.73,13.52,13.52,0,0,1,7.7-1.66c4.81,0.18,8.1,2.91,8.92,7.63a32.13,32.13,0,0,1,.44,5.31c0,8.79,0,17.57,0,26.36a2.09,2.09,0,0,0,.3,1.73h6.77c0-.63.08-1.17,0.08-1.71,0-9,0-17.91,0-26.86a33.86,33.86,0,0,0-.87-8.1,12.62,12.62,0,0,0-8.09-9.27A21.8,21.8,0,0,0,119,103.2a16.45,16.45,0,0,0-12.47,5.75,6.39,6.39,0,0,1-.74.59c0-1.69,0-3.12,0-4.56s0-2.89,0-4.34,0-3,0-4.5,0-2.89,0-4.34a39.14,39.14,0,0,0-.08-4.25H98.79v62.93h6.89Zm-51-15.86c0.37,2,.6,3.8,1.07,5.55A14.14,14.14,0,0,0,64.48,150c5.53,2.28,11.18,2.09,16.88.78a16.7,16.7,0,0,0,6-2.81,12.5,12.5,0,0,0,1.37-19.22,17.15,17.15,0,0,0-8-3.9c-2.93-.65-5.87-1.25-8.78-2a17.72,17.72,0,0,1-6.14-2.49,5.42,5.42,0,0,1,.14-9,10.33,10.33,0,0,1,2.69-1.3,15.16,15.16,0,0,1,9.36.1,8.1,8.1,0,0,1,5.91,7.49c0,0.47.11,0.94,0.17,1.47,1.28,0,2.39,0,3.5,0s2.31,0.28,3.54-.27c-0.1-.85-0.18-1.67-0.3-2.48-0.82-5.8-3.9-9.89-9.42-11.88a22.74,22.74,0,0,0-17.39.77c-4,1.78-6.83,4.78-7.44,9.35-0.7,5.23,1,9.32,5.73,11.9a27.5,27.5,0,0,0,3,1.38c3.33,1.32,6.86,1.86,10.32,2.66a24.86,24.86,0,0,1,6.76,2.32A5.86,5.86,0,0,1,84.07,142a9,9,0,0,1-4.45,2.82,17.1,17.1,0,0,1-10.35.09c-3.93-1.27-6.73-4-7.22-8.48-0.06-.59-0.17-1.17-0.27-1.8H54.67Zm75.2,70.56,4.18,5.1h6.9l-8-9.78a25.91,25.91,0,0,0,2.41-11.18H130c-0.27,2,.15,4.23-1,6.41l-8.1-9.8c0.89-.66,1.74-1.26,2.57-1.89,3.06-2.33,5.4-5.14,5.72-9.16a9,9,0,0,0-2.94-7.65A11.9,11.9,0,0,0,113,165.61a9.69,9.69,0,0,0-4.65,11.62,30.33,30.33,0,0,0,2.31,4.4c0.61,1,1.38,1.95,2.19,3.05a27.08,27.08,0,0,0-6.38,4.71,15.51,15.51,0,0,0-3.3,4.72,11.24,11.24,0,0,0-.64,5.58,11.6,11.6,0,0,0,4.81,8.76,15.79,15.79,0,0,0,6.91,2.66,16.25,16.25,0,0,0,9.25-1.31A20.61,20.61,0,0,0,129.87,205.16Zm98.2,15.46a24.08,24.08,0,0,0,6.88-.09V157.85h-6.88v62.77Zm22.78,0.08c0.3-2,.23-61.68-0.06-62.86H244V220.7h6.8Z"/>
    <path class="cls-1" d="M320.51,164.26a2,2,0,0,1-.32-0.7q0-3.31,0-6.62a2,2,0,0,1,.32-0.7v8Z"/>
    <path class="cls-1" d="M0,156.25a2,2,0,0,1,.32.7q0,3.31,0,6.62a2,2,0,0,1-.32.7Q0,160.25,0,156.25Z"/>
    <path class="cls-2" d="M163.93,0a2,2,0,0,1-.7.32q-3,0-5.94,0a2,2,0,0,1-.7-0.32h7.34Z"/>
    <path class="cls-2" d="M156.58,320.51a2,2,0,0,1,.7-0.32q3,0,5.94,0a2,2,0,0,1,.7.32h-7.34Z"/>
    <path class="cls-3" d="M129.87,205.16a20.61,20.61,0,0,1-6.39,4.64,16.25,16.25,0,0,1-9.25,1.31,15.79,15.79,0,0,1-6.91-2.66,11.6,11.6,0,0,1-4.81-8.76,11.24,11.24,0,0,1,.64-5.58,15.51,15.51,0,0,1,3.3-4.72,27.08,27.08,0,0,1,6.38-4.71c-0.8-1.11-1.58-2-2.19-3.05a30.33,30.33,0,0,1-2.31-4.4A9.69,9.69,0,0,1,113,165.61a11.9,11.9,0,0,1,13.21,1.59,9,9,0,0,1,2.94,7.65c-0.32,4-2.66,6.83-5.72,9.16-0.83.63-1.67,1.23-2.57,1.89l8.1,9.8c1.16-2.18.74-4.39,1-6.41h5.41A25.91,25.91,0,0,1,133,200.47l8,9.78H134Zm-13.68-16.55a13.86,13.86,0,0,0-7.06,5.75,7.1,7.1,0,0,0,.07,8.13c2.19,3.45,6.14,4.45,10,3.65,3.11-.65,5.17-2.83,7.17-5.29Zm1.52-6.6c0.56-.36.94-0.58,1.31-0.83a13.36,13.36,0,0,0,3.55-3.45,6.29,6.29,0,0,0,.76-5.42c-0.71-2.67-4.33-3.73-7-2.76s-3.49,3.12-2.67,6.32C114.33,178.26,116,180.11,117.72,182Z"/>
    <path d="M149.82,127.54c0.06-5.09,1.26-9.81,4.7-13.72a12.47,12.47,0,0,1,9-4.38c6.51-.33,11.06,2.65,13.64,8.43,3.31,7.44,3,14.85-1.44,21.8-4.32,6.69-12.73,7.31-18,4.21a15,15,0,0,1-6.16-7.24A22.09,22.09,0,0,1,149.82,127.54Z"/>
    <path d="M188.2,193.87c1.05-5.55,3-10.4,8.31-13,5.48-2.66,12.25-1.14,16.1,4.9a17.6,17.6,0,0,1,2.41,6.86,8.51,8.51,0,0,1,0,1.22H188.2Z"/>
    <path d="M116.19,188.61l10.14,12.23c-2,2.46-4.07,4.63-7.17,5.29-3.82.81-7.77-.2-10-3.65a7.1,7.1,0,0,1-.07-8.13A13.86,13.86,0,0,1,116.19,188.61Z"/>
    <path class="cls-4" d="M117.72,182c-1.69-1.9-3.39-3.75-4-6.14-0.83-3.2,0-5.32,2.67-6.32s6.24,0.09,7,2.76a6.29,6.29,0,0,1-.76,5.42,13.36,13.36,0,0,1-3.55,3.45C118.66,181.43,118.28,181.65,117.72,182Z"/>
  </g>
</svg>
